<?xml version="1.0" encoding="UTF-8" standalone="no"?>
<!-- Created with Inkscape (http://www.inkscape.org/) -->

<svg
   width="616.11768"
   height="616.11774"
   viewBox="0 0 616.11768 616.11774"
   version="1.1"
   id="svg1"
   xml:space="preserve"
   xmlns="http://www.w3.org/2000/svg"
   xmlns:svg="http://www.w3.org/2000/svg"><defs
     id="defs1" /><g
     id="layer1"
     transform="translate(-651.94116,-231.94113)"><g
       id="g15"
       transform="translate(-3.0517578e-5)"><g
         id="g13"><rect
           style="fill:#006eff;fill-opacity:1;fill-rule:evenodd;stroke-width:27.1999"
           id="rect13-7-3-9-7-0"
           width="616.11774"
           height="616.11774"
           x="651.94116"
           y="231.94113"
           ry="308.05887" /><g
           id="g12"><path
             style="fill:#ffffff;fill-opacity:1"
             d="m 740.56629,617.70792 c -2.66967,-10.30258 -10.8942,-58.05128 55.20701,-88.98881 34.42509,-16.11205 85.21971,-22.67159 86.00716,-23.17689 4.0832,-2.62019 9.99195,-64.99858 19.25556,-73.26653 9.59236,-8.06568 36.54981,-5.10111 42.0135,0.71473 2.19187,2.33314 2.19187,2.33314 -5.07857,33.40697 -3.99875,17.0906 -7.02165,31.32262 -6.71756,31.6267 16.29148,0.17361 42.37125,-11.74886 53.91862,-23.33875 9.04541,-9.48317 12.82284,-19.27369 12.82284,-33.23486 0,-24.82396 -16.21753,-44.3118 -43,-51.67107 -1.12304,-0.30859 -48.22885,-12.95711 -82.22413,27.04653 -7.61021,8.95525 -11.75486,15.7104 -16.74748,27.29583 -12.47798,28.9553 -50.01742,8.10901 -50.01009,7.45187 0.0383,-3.44006 6.98245,-18.3364 12.4968,-26.80784 22.64336,-34.786 63.65803,-53.35459 117.78612,-53.32537 18.35341,0.01 29.75989,1.22079 43.68667,4.63765 17.93358,4.3999 33.45846,12.27198 44.77626,22.70439 12.951,11.93779 21.2503,31.12187 21.224,49.05972 -0.046,31.57311 -21.495,43.37731 -38.2161,52.34085 25.0451,10.71345 44.697,29.64853 54.0698,55.45719 6.7698,21.96837 1.7576,42.43597 -14.4483,59.00045 -17.057,17.43436 -40.7013,27.80423 -72.36732,31.73869 -17.68019,2.19674 -53.32083,0.83492 -77.77085,-2.97162 -5.01386,-0.78059 -49.31419,11.34312 -54.70101,-2.69443 -0.39573,-1.03126 1.62008,-6.07286 5.2874,-13.22389 10.66455,-20.79522 18.13293,-44.43084 27.66632,-87.55721 1.82371,-8.25 3.21405,-15.10391 3.08963,-15.23091 -0.51786,-0.52862 -19.31315,5.0694 -27.46445,8.18006 -100.9995,38.54286 -89.72614,134.92484 49.36673,156.71135 11.01274,1.72495 52.44553,1.7213 64,-0.006 106.41395,-15.90479 95.45645,-68.41905 128.50005,-68.4575 71.7934,1.09619 -13.5862,72.22898 -130.50005,85.25576 -89.09038,7.61916 -204.92648,-23.06389 -221.92856,-88.67706 z m 271.30961,-56.29076 c -18.18391,-48.11437 -85.71021,-43.54036 -86.31544,-40.87384 -0.29823,1.31389 -3.48618,15.76124 -7.08433,32.1052 -6.38483,29.00184 -15.34568,63.79331 -17.437,67.70097 -1.80316,3.36923 -1.22266,3.87194 5.84832,5.06463 82.41805,13.90161 120.08595,-24.04903 104.98845,-63.99696 z"
             id="path9-5" /><path
             style="fill:#ffffff;fill-opacity:1;fill-rule:evenodd;stroke-width:13.3333"
             id="path16"
             d="m 1115.6375,318.06894 c 5.3578,8.51391 48.5056,27.07213 46.2739,36.8809 -2.2317,9.80876 -49.1613,7.87231 -57.6753,13.23009 -8.5139,5.35779 -27.0721,48.50557 -36.8809,46.27386 -9.8087,-2.23172 -7.8723,-49.16135 -13.23,-57.67526 -5.3578,-8.51391 -48.5056,-27.07213 -46.2739,-36.88089 2.2317,-9.80877 49.1613,-7.87232 57.6753,-13.2301 8.5139,-5.35778 27.0721,-48.50557 36.8808,-46.27385 9.8088,2.23172 7.8724,49.16134 13.2301,57.67525 z"
             transform="rotate(50.682993,780.72324,514.15366)" /></g></g></g></g></svg>
